<?xml version="1.0" encoding="UTF-8"?>
<svg id="Ebene_1" data-name="Ebene 1" xmlns="http://www.w3.org/2000/svg" viewBox="0 0 888.67 888.67">
  <defs>
    <style>
      .cls-1 {
        fill: #5d5fa8;
      }

      .cls-2 {
        fill: #5a5b9f;
      }

      .cls-3 {
        fill: #25224f;
      }

      .cls-4 {
        fill: #2b2d6b;
      }

      .cls-5 {
        fill: #888989;
      }

      .cls-6 {
        fill: #7b7baa;
      }
    </style>
  </defs>
  <path class="cls-3" d="m444.33,444.75s0,.01,0,.02h-.03s.02-.01.03-.02Z"/>
  <path class="cls-3" d="m888.67,467.74c-41.87,14.13-82.04,19.25-118.74,10.33.06,0,.12,0,.19,0,0,0-.02,0-.03,0-53.35-10.96-66.05-54.51-124.37-64.78-1.47-.26-2.97-.49-4.5-.71-50.09-6.68-77.67,1.65-136.83,41.61-.92-.02-1.88-.07-2.84-.14-12.91-2.9-26.66-5.4-41.14-7.54-5.2-.94-10.45-1.72-15.64-2.15,5.37-3.48,10.81-7.01,16.23-10.56,1.81-1.19,3.62-2.37,5.42-3.55,2.64-1.73,5.26-3.46,7.89-5.19,4.49-2.97,8.96-5.94,13.39-8.92.03-.03.07-.05.12-.08,28.94-18.59,55.6-37.93,79.65-58.13.04-.03.08-.06.13-.1,21.52-17.63,40.87-36.06,56.85-54.97.02-.02.04-.04.05-.06,0,0,0,0,0-.01,1.45-1.71,2.88-3.43,4.27-5.15.03.05.07.09.1.13,75.22,97.74,162.14,165.88,259.79,170Z"/>
  <path class="cls-6" d="m770.11,478.07c-.07,0-.13,0-.19,0-113.09,10.34-137.53,137.46-120.35,205.35-11.56-27.74-18.23-48.9-22.42-66.66-4.67-19.89-6.25-35.54-8.1-51.45-1.28-11-2.69-22.14-5.35-34.89-6.72-32.22-36.46-53.7-81.18-68.04-.07-.03-.15-.05-.21-.07-9.6-3.08-19.88-5.83-30.77-8.28.97.08,1.92.12,2.84.14,59.16-39.96,86.74-48.29,136.83-41.61,1.53.22,3.03.45,4.5.71,58.32,10.27,71.02,53.82,124.37,64.78.02,0,.03,0,.03,0Z"/>
  <path class="cls-4" d="m649.57,683.43c-7.27-6.75-13.03-13.84-17.76-21.19h0c-22.5-35.05-21.09-76.12-43.62-116.88-26.33-43.82-65.61-72.14-141.82-100.42-.54-.2-1.08-.4-1.61-.6,0,0,0,0,0,0,5.19.43,10.44,1.21,15.64,2.15,14.48,2.14,28.23,4.64,41.14,7.54,10.89,2.46,21.17,5.2,30.77,8.28.07.02.14.03.21.07,44.72,14.35,74.46,35.82,81.18,68.04,2.66,12.75,4.07,23.88,5.35,34.89,1.85,15.91,3.43,31.57,8.1,51.45,4.19,17.76,10.85,38.92,22.42,66.66Z"/>
  <path class="cls-5" d="m444.77,444.33s0,0,0,0c0,0,0,0-.01,0h.02Z"/>
  <path class="cls-3" d="m476.24,622.43c-.32,6.03-.94,12.26-1.81,18.79-3.75,26.58-13.62,43.86-24.53,59.2-7.81,10.97-16.17,20.94-23.21,32.61-7.26,12.03-13.13,25.86-15.57,44.45,0,0,0,.03,0,.03-5.24-119.57-136.48-145.49-205.86-127.93,18.16-11.08,41.13-17.56,66.66-22.42,19.89-4.67,35.54-6.25,51.45-8.1,11-1.28,22.14-2.69,34.89-5.35,39.09-8.15,62.37-50.21,76.3-111.76,0-.03,0-.07.02-.1,5.57,7.97,10.53,15.91,14.91,23.79,21.61,36.9,28.54,63.87,26.76,96.79Z"/>
  <path class="cls-2" d="m444.33,444.75c-.28,2.14-.55,4.26-.85,6.37-.02.18-.04.38-.07.56,0,.03,0,.08-.02.11,0,.07,0,.14-.03.21,0,.04,0,.09-.02.13-2.41,17.64-5.31,34.28-8.79,49.71,0,.03-.02.07-.02.1-13.93,61.55-37.21,103.61-76.3,111.76-12.75,2.66-23.88,4.07-34.89,5.35-15.91,1.85-31.57,3.43-51.45,8.1-25.53,4.86-48.51,11.34-66.66,22.42,6.75-7.27,13.84-13.03,21.19-17.76h0c35.04-22.5,76.12-21.09,116.87-43.62,42.49-25.53,70.41-63.25,97.85-135,.12-.28.23-.58.33-.86.1-.25.19-.5.29-.75.05-.14.1-.28.16-.43.21-.55.41-1.1.62-1.65.59-1.57,1.18-3.15,1.77-4.76Z"/>
  <path class="cls-6" d="m441.16,453.19c-27.44,71.74-55.35,109.47-97.85,135-40.76,22.54-81.83,21.12-116.87,43.62h0c8.74-13.35,18.52-26.37,29.29-39.06,13.34-15.74,28.19-30.98,44.43-45.78l.05-.05c9.75-8.89,20.01-17.61,30.74-26.19t.02-.02c33.56-26.23,70.7-48.27,110.21-67.53Z"/>
  <path class="cls-4" d="m441.78,451.58c-.1.25-.19.5-.29.75-.11.29-.22.58-.33.86-39.51,19.25-76.65,41.29-110.21,67.53t-.02.02c-10.72,8.57-20.98,17.3-30.74,26.19l-.05.05c-16.24,14.8-31.08,30.04-44.43,45.78C180.71,495.64,97.29,432.55,0,428.45c38.64-12.38,75.88-16.77,111.15-9.82h.03s0,0,.02,0c15.2,2.99,30.03,8.1,44.45,15.57,0,0,.02,0,.03,0,5.09,3.07,9.85,6.39,14.51,9.81.78.57,1.55,1.14,2.32,1.71,1.1.81,2.18,1.62,3.27,2.43,1.22.92,2.45,1.84,3.67,2.76.78.58,1.55,1.16,2.33,1.74.81.6,1.62,1.2,2.43,1.8.75.55,1.5,1.1,2.26,1.64.79.58,1.59,1.15,2.38,1.7.79.58,1.6,1.14,2.41,1.69.81.57,1.63,1.13,2.46,1.66.35.24.7.47,1.05.7.04.03.07.04.1.06.74.5,1.5,1,2.26,1.47,2.77,1.75,5.64,3.45,8.64,5.07.47.26.95.51,1.43.76,1.91,1,3.89,1.97,5.93,2.9.42.19.83.38,1.26.57,1.21.54,2.46,1.06,3.73,1.57.44.18.88.35,1.33.52.34.13.69.27,1.04.39.42.17.84.32,1.27.48.43.15.85.31,1.3.46.42.15.83.3,1.26.44,1.02.34,2.06.68,3.12.99.49.15.98.3,1.49.45.16.05.33.09.49.14.57.16,1.15.33,1.72.48.63.18,1.26.34,1.9.5.65.17,1.29.33,1.95.48.65.15,1.31.3,1.98.45.27.06.53.12.81.18,1.07.23,2.16.45,3.27.66,2.07.39,4.21.74,6.41,1.05,1.04.14,2.06.27,3.08.4.22.02.43.06.65.08,5.66.8,11.45,1.29,17.33,1.45h.13c15.99.66,30.66-.81,45.85-5.11.19-.05.39-.1.58-.16,21.14-6.07,43.35-17.62,71.66-36.54.13.03.26.06.39.09,12.7,2.86,26.23,5.32,40.47,7.45,0,0,0,0,.02,0,2.21.33,4.46.65,6.7.96,2.48.35,4.97.69,7.48,1.01Z"/>
  <path class="cls-6" d="m386.72,442.07c-28.31,18.93-50.52,30.47-71.66,36.54-.19.06-.39.11-.58.16-15.19,4.3-29.85,5.77-45.85,5.11h-.13c-5.88-.16-11.66-.65-17.33-1.45-.21-.03-.43-.06-.65-.08-1.02-.13-2.05-.25-3.08-.4-2.2-.31-4.34-.66-6.41-1.05-1.1-.21-2.2-.43-3.27-.66-.28-.06-.55-.12-.81-.18-.67-.15-1.33-.3-1.98-.45-.66-.16-1.3-.32-1.95-.48-.64-.16-1.28-.33-1.9-.5-.58-.15-1.15-.32-1.72-.48-.17-.05-.33-.09-.49-.14-.5-.15-1-.3-1.49-.45-1.06-.32-2.1-.65-3.12-.99-.43-.14-.84-.29-1.26-.44-.45-.15-.87-.31-1.3-.46-.43-.16-.85-.31-1.27-.48-.35-.12-.7-.26-1.04-.39-.45-.17-.89-.35-1.33-.52-1.27-.51-2.51-1.03-3.73-1.57-.43-.19-.85-.38-1.26-.57-2.04-.93-4.01-1.9-5.93-2.9-.48-.25-.96-.5-1.43-.76-3-1.62-5.87-3.32-8.64-5.07-.76-.48-1.51-.97-2.26-1.47-.03-.02-.07-.03-.1-.06-.35-.23-.7-.47-1.05-.7-.83-.55-1.65-1.1-2.46-1.66-.81-.56-1.61-1.12-2.41-1.69-.8-.56-1.59-1.13-2.38-1.7-.75-.54-1.5-1.1-2.26-1.64-.81-.6-1.62-1.2-2.43-1.8-.78-.58-1.55-1.16-2.33-1.74-1.22-.92-2.45-1.84-3.67-2.76-1.09-.81-2.18-1.63-3.27-2.43-.77-.58-1.55-1.15-2.32-1.71-4.66-3.42-9.43-6.74-14.51-9.81,0,0-.02,0-.03,0-14.42-7.47-29.25-12.58-44.45-15.57,0,0,0,0-.02,0,119.56-5.24,145.47-136.48,127.91-205.86,11.08,18.16,17.56,41.13,22.42,66.66,3.1,16.31,5.54,33.65,8.1,51.45,1.28,11,2.69,22.14,5.35,34.89,8.15,39.09,50.21,62.37,111.76,76.3Z"/>
  <path class="cls-1" d="m442.56,449.51c-.21.55-.41,1.1-.62,1.65-.15-.05-.29-.1-.44-.16-1.65-.58-3.29-1.17-4.91-1.76-52.29-19.08-86.06-39.26-109.92-63.78-.03-.03-.07-.06-.1-.09-11.58-11.6-20-23.36-26.45-35.15,0-.03-.03-.05-.04-.08-22.14-40.53-20.86-81.33-43.22-116.16t0-.02c12.51,8.19,24.71,17.29,36.64,27.25-.02,0-.04.02-.06.04,23.97,20.02,46.35,43.13,67.51,68.61.58.71,1.17,1.42,1.75,2.13.87,1.05,1.73,2.11,2.58,3.17.85,1.05,1.7,2.1,2.55,3.16,25.68,32.11,49.96,68.47,73.11,108.38h0c.53.93,1.08,1.86,1.61,2.81Z"/>
  <path class="cls-3" d="m441.94,451.16c-.06.14-.11.28-.16.43-2.51-.33-5.01-.66-7.48-1.01-2.25-.31-4.49-.63-6.7-.96,0,0-.02,0-.02,0-14.23-2.13-27.76-4.59-40.47-7.45-.13-.03-.26-.06-.39-.09-61.55-13.93-103.61-37.21-111.76-76.3-2.66-12.75-4.07-23.88-5.35-34.89-2.56-17.8-5-35.14-8.1-51.45-4.86-25.53-11.34-48.51-22.42-66.66,7.27,6.75,13.03,13.84,17.76,21.19t0,.02c22.37,34.83,21.09,75.63,43.22,116.16.02.03.03.05.04.08,6.44,11.8,14.87,23.56,26.45,35.15.03.03.06.06.1.09,23.86,24.51,57.63,44.7,109.92,63.78,1.62.6,3.26,1.18,4.91,1.76.15.06.29.11.44.16Z"/>
  <path class="cls-3" d="m465.23,0c-4.11,97.68-73.96,185.98-171.74,261.21-.02,0-.04.02-.06.04,23.97,20.02,46.35,43.13,67.51,68.61.58.71,1.17,1.42,1.75,2.13.87,1.05,1.73,2.11,2.58,3.17.85,1.05,1.7,2.1,2.55,3.16,25.68,32.11,49.96,68.47,73.11,108.38h0c.53.93,1.08,1.86,1.61,2.81.59-1.57,1.18-3.14,1.77-4.74,0,0,0-.01,0-.02,0,0-.02,0-.03.02-.59.33-1.19.68-1.78,1.02-.09.05-.17.1-.26.15,0,.03-.02.04-.03.07,0-.02,0-.04,0-.06.04-.31.07-.63.11-.96.16-1.64.27-3.56.38-5.47.12-2.27.26-4.51.51-6.24,0-.01,0-.02,0-.02,2.24-15.94,4.9-31.03,8.04-45.12-3.45-4.91-6.65-9.67-9.6-14.29-.05-.07-.1-.13-.13-.2-4.8-7.08-9.01-14.29-12.65-21.58-.09-.18-.18-.35-.27-.52-16.05-30.74-20.67-56.31-18.71-86.41,0-.09,0-.2.02-.3.24-4.86.71-9.67,1.39-14.38,0-.06.02-.12.02-.18.11-.94.23-1.87.36-2.82.1-.73.21-1.45.33-2.17.11-.72.23-1.43.35-2.13.12-.7.25-1.4.38-2.09.09-.48.18-.95.28-1.42.09-.46.18-.91.28-1.36.13-.59.25-1.16.38-1.73.12-.52.23-1.03.36-1.53.15-.65.31-1.3.48-1.94.11-.46.23-.92.35-1.36,0-.04.02-.08.03-.12.08-.29.16-.58.23-.87.35-1.29.72-2.55,1.1-3.78.13-.43.27-.86.41-1.29.49-1.51,1-3,1.54-4.45.18-.48.36-.96.54-1.44.02-.04.03-.09.05-.13l.03-.05c.2-.51.4-1.02.6-1.53.2-.51.41-1.01.62-1.51.23-.54.46-1.09.69-1.62.23-.51.45-1.02.68-1.53.11-.25.23-.5.34-.75.12-.25.23-.5.35-.75.29-.63.59-1.25.9-1.86.2-.43.42-.85.63-1.27.21-.42.43-.84.64-1.25.5-.98,1.02-1.94,1.55-2.88.24-.44.48-.88.73-1.31.33-.58.66-1.16,1-1.74.02-.05.05-.1.08-.15.43-.75.88-1.48,1.33-2.22.53-.86,1.06-1.71,1.6-2.56.28-.43.55-.86.83-1.29.33-.51.66-1.01,1-1.51.06-.1.13-.2.21-.3,4.21-6.25,8.97-12,14.21-17.15,4.78-6.81,8.99-13.72,12.62-20.72,0,0,0-.02,0-.02,7.47-14.42,12.58-29.25,15.58-44.45,0,0,0,0,0-.02v-.03c6.94-35.27,2.56-72.51-9.82-111.15Zm-23.22,445.91h0s0,.04,0,.05c0-.01,0-.03,0-.04,0-.03-.01-.07-.02-.1,0,.03.02.05.02.08Z"/>
  <path class="cls-5" d="m442.27,445.94s-.02.04-.03.07c0-.02,0-.04,0-.06,0,0,0,0,.02,0Z"/>
  <path class="cls-5" d="m442.02,445.91h0s0,.01,0,.02c0-.03-.01-.07-.02-.1,0,.03.02.05.02.08Z"/>
  <path class="cls-1" d="m680.23,239.51c.08-.08.15-.17.23-.25-3.88,2.37-7.92,4.51-12.13,6.48,0,0-.01,0-.02,0-15.47,7.23-33.15,11.95-53.22,15.77-19.89,4.67-35.54,6.25-51.45,8.1-11,1.28-22.14,2.69-34.89,5.35-5.51,1.15-10.7,2.76-15.59,5.01-5.45,2.63-10.54,6.04-15.29,10.17-.79.66-1.58,1.34-2.36,2.05-3.62,3.29-7.08,7.15-10.43,11.7-.13.17-.26.35-.38.52-.73,1.01-1.46,2.06-2.19,3.14-.02.03-.04.07-.07.1-3.94,5.69-7.58,12.02-10.94,18.94-8.21,16.91-14.76,37.33-19.97,60.52-.07.34-.15.68-.23,1.01-3.45-4.91-6.65-9.67-9.6-14.29-.05-.07-.1-.13-.13-.2-4.83-7.53-9.03-14.69-12.65-21.58-.09-.18-.18-.35-.27-.52-16.05-30.74-20.67-56.31-18.71-86.41,0-.09,0-.2.02-.3.31-4.66.78-9.45,1.39-14.38,0-.06.02-.12.02-.18.11-.94.23-1.87.36-2.82.1-.73.21-1.45.33-2.17.11-.72.23-1.43.35-2.13.12-.7.25-1.4.38-2.09.09-.48.18-.95.28-1.42.09-.46.18-.91.28-1.36.13-.59.25-1.16.38-1.73.12-.52.23-1.03.36-1.53.15-.65.31-1.3.48-1.94.11-.46.23-.91.35-1.36,0-.04.02-.08.03-.12.08-.29.16-.58.23-.87.35-1.29.72-2.55,1.1-3.78.13-.43.27-.86.41-1.29.49-1.51,1-3,1.54-4.45.18-.48.36-.96.54-1.44.02-.04.03-.09.05-.13l.03-.05c.2-.51.4-1.02.6-1.53.2-.51.41-1.01.62-1.51.23-.54.46-1.09.69-1.62.23-.51.45-1.02.68-1.53.11-.25.23-.5.34-.75.12-.25.23-.5.35-.75.29-.63.59-1.25.9-1.86.2-.43.42-.85.63-1.27.21-.42.43-.84.64-1.25.5-.98,1.02-1.94,1.55-2.88.24-.44.48-.88.73-1.31.33-.58.66-1.16,1-1.74.02-.05.05-.1.08-.15.43-.75.88-1.48,1.33-2.22.53-.86,1.06-1.71,1.6-2.56.28-.43.55-.86.83-1.29.33-.51.66-1.01,1-1.51.06-.1.13-.2.21-.3,4.21-6.25,8.97-12,14.21-17.15,4.78-6.81,8.99-13.72,12.62-20.72,0,0,0-.02,0-.02,7.47-14.42,12.58-29.25,15.58-44.45,0,0,0,0,0-.02,5.24,119.56,136.48,145.47,205.86,127.91-.23.14-.46.28-.69.41Z"/>
  <path class="cls-5" d="m442.27,445.94s-.02.04-.03.07c0-.02,0-.04,0-.06,0,0,0,0,.02,0Z"/>
  <path class="cls-6" d="m680.23,239.51c-6.66,7.14-22.58,20.47-23.33,21.59-34.42,20.7-74.39,19.94-114.06,41.89-.05.02-.08.03-.11.06-33.05,19.89-57.28,47.17-79.33,92.13-.09.18-.18.35-.26.53-7.09,14.85-13.97,31.49-20.87,50.23,0,0,0,0-.02,0,.04-.31.07-.63.11-.96.16-1.64.27-3.56.38-5.47.12-2.27.26-4.51.51-6.24,0-.01,0-.02,0-.02,2.24-15.94,4.9-31.03,8.04-45.12.07-.33.15-.68.23-1.01,5.22-23.18,11.76-43.61,19.97-60.52,3.36-6.92,7-13.25,10.94-18.94.03-.03.05-.07.07-.1.73-1.08,1.45-2.13,2.19-3.14.13-.18.25-.35.38-.52,3.26-4.38,6.75-8.22,10.43-11.7.78-.71,1.56-1.39,2.36-2.05,4.75-4.13,9.84-7.54,15.29-10.17,4.89-2.25,10.08-3.86,15.59-5.01,12.75-2.66,23.88-4.07,34.89-5.35,15.91-1.85,31.57-3.43,51.45-8.1,20.07-3.82,37.76-8.54,53.22-15.77,0,0,.01,0,.02,0,4.16-1.9,8.12-3.96,11.89-6.23Z"/>
  <path class="cls-4" d="m592.05,632.35c-97.79,75.23-167.01,158.63-171.13,256.31-12.38-38.64-16.77-75.88-9.82-111.15h0s0-.03,0-.04c2.45-18.59,8.32-32.42,15.57-44.45,7.04-11.67,15.4-21.65,23.21-32.61,10.92-15.33,20.78-32.61,24.53-59.2.87-6.53,1.49-12.76,1.81-18.79,1.77-32.92-5.15-59.89-26.76-96.79-4.38-7.88-9.35-15.83-14.91-23.79,3.49-15.43,6.39-32.07,8.79-49.71,0-.04.02-.09.02-.13.02-.07.03-.14.03-.21.02-.03.02-.08.02-.11.03-.18.06-.38.07-.56.3-2.1.57-4.22.84-6.36,0,0,0-.01,0-.02,0,0,0,.01,0,.02,1.03,1.79,2.05,3.56,3.08,5.33,1.04,1.77,2.07,3.54,3.11,5.3.92,1.58,1.85,3.13,2.78,4.69,1,1.68,2,3.36,3.02,5.03,1.01,1.67,2.01,3.33,3.03,4.99.88,1.44,1.75,2.88,2.64,4.31.18.29.35.57.53.85.98,1.58,1.96,3.15,2.94,4.71.94,1.5,1.89,3,2.84,4.5.2.33.41.65.62.97.76,1.22,1.54,2.42,2.31,3.63.2.32.4.63.6.94.22.33.43.67.64,1,.75,1.16,1.5,2.32,2.27,3.48,2.06,3.18,4.15,6.34,6.27,9.48,1.06,1.58,2.12,3.15,3.19,4.71.43.66.89,1.31,1.34,1.97.72,1.05,1.44,2.11,2.16,3.15,1,1.45,2.01,2.9,3.03,4.34,1.58,2.25,3.16,4.49,4.76,6.71,1.59,2.22,3.19,4.42,4.8,6.62,2.85,3.91,5.74,7.77,8.67,11.6,9.7,12.73,19.7,24.96,30.08,36.69.78.88,1.55,1.76,2.34,2.63,3.06,3.44,6.16,6.85,9.3,10.2.73.8,1.48,1.59,2.23,2.38,1,1.06,2,2.11,3,3.16,1,1.04,2,2.09,3.01,3.13,1,1.04,2.01,2.06,3.03,3.09,1.01,1.02,2.03,2.04,3.04,3.05.2.2.4.4.6.6.81.81,1.63,1.62,2.45,2.41,1.02,1,2.04,1.99,3.06,2.98.61.58,1.22,1.17,1.83,1.75.41.39.83.78,1.24,1.17,5.88,5.57,11.83,10.92,17.86,16.05Z"/>
  <path class="cls-2" d="m631.82,662.23h0c-13.61-8.89-26.85-18.87-39.76-29.87-6.02-5.13-11.98-10.48-17.86-16.05-.41-.39-.83-.78-1.24-1.17-.61-.58-1.22-1.16-1.83-1.75-1.02-.99-2.04-1.98-3.06-2.98-.82-.79-1.64-1.6-2.45-2.41-.2-.2-.4-.4-.6-.6-1.02-1.01-2.03-2.03-3.04-3.05-1.02-1.03-2.03-2.06-3.03-3.09-1.01-1.04-2.01-2.08-3.01-3.13-1-1.05-2-2.1-3-3.16-.75-.8-1.5-1.59-2.23-2.38-.75-.8-1.49-1.6-2.23-2.41-2.38-2.57-4.74-5.17-7.08-7.79-.79-.88-1.57-1.75-2.34-2.63-10.35-11.73-20.36-23.96-30.08-36.69-2.92-3.82-5.8-7.68-8.67-11.6-1.6-2.2-3.21-4.41-4.8-6.62-1.6-2.22-3.18-4.46-4.76-6.71-1.01-1.44-2.02-2.88-3.03-4.34-.73-1.05-1.45-2.1-2.16-3.15-.45-.65-.9-1.3-1.34-1.97-1.07-1.56-2.13-3.13-3.19-4.71-2.1-3.13-4.2-6.29-6.27-9.48-.76-1.15-1.51-2.32-2.27-3.48-.22-.34-.43-.67-.64-1-.2-.31-.4-.62-.6-.94-.78-1.2-1.55-2.41-2.31-3.63-.21-.32-.42-.65-.62-.97-.95-1.5-1.9-2.99-2.84-4.5-.98-1.56-1.96-3.13-2.94-4.71-.18-.28-.35-.56-.53-.85-.89-1.43-1.76-2.87-2.64-4.31-1.02-1.65-2.02-3.32-3.03-4.99-1.01-1.67-2.01-3.35-3.02-5.03-.93-1.55-1.85-3.11-2.78-4.69-1.04-1.75-2.07-3.53-3.11-5.3-1.03-1.77-2.05-3.54-3.08-5.33,0,0,0-.01,0-.02,0,0-.02,0-.03.02-.06,0-.12-.01-.18-.02l.64-.41c.54.2,1.08.4,1.61.6,76.2,28.28,115.48,56.6,141.82,100.42,22.54,40.76,21.12,81.83,43.62,116.87Z"/>
  <path class="cls-4" d="m656.9,261.1c-8.44,12.51-17.8,24.72-28.03,36.65-.03-.05-.07-.09-.1-.13-1.39,1.72-2.81,3.44-4.27,5.15,0,0,0,0,0,.01-.02.02-.03.04-.05.06-15.99,18.91-35.34,37.34-56.85,54.97-.04.04-.08.08-.13.1-24.05,20.19-50.71,39.53-79.65,58.13-.04.03-.08.06-.12.08-4.43,2.97-8.9,5.94-13.39,8.92-2.62,1.73-5.25,3.46-7.89,5.19-1.8,1.18-3.61,2.36-5.42,3.55-5.39,3.52-10.8,7.04-16.25,10.56,0,0,0,0,.01,0l-.64.41c.06,0,.12,0,.18.02-.59.33-1.19.68-1.78,1.02-.09.05-.17.1-.26.15,6.9-18.74,13.78-35.38,20.87-50.23.08-.18.17-.36.26-.53,22.05-44.96,46.28-72.24,79.33-92.13.03-.03.07-.04.11-.06,39.66-21.95,79.63-21.19,114.06-41.89Z"/>
  <path class="cls-5" d="m628.88,297.74c-1.44,1.68-2.89,3.35-4.37,5.02,1.45-1.71,2.88-3.43,4.27-5.15.03.05.07.09.1.13Z"/>
</svg>